<svg width="40" height="40" viewBox="0 0 40 40" fill="none" xmlns="http://www.w3.org/2000/svg">
<circle cx="20" cy="20" r="20" transform="rotate(180 20 20)" fill="#3DB0B2"/>
<path d="M32.002 21.5C32.8304 21.5 33.502 20.8284 33.502 20C33.502 19.1716 32.8304 18.5 32.002 18.5L32.002 20L32.002 21.5ZM7.60796 18.9393C7.02217 19.5251 7.02217 20.4749 7.60796 21.0607L17.1539 30.6066C17.7397 31.1924 18.6894 31.1924 19.2752 30.6066C19.861 30.0208 19.861 29.0711 19.2752 28.4853L10.7899 20L19.2752 11.5147C19.861 10.9289 19.861 9.97919 19.2752 9.3934C18.6894 8.80762 17.7397 8.80762 17.1539 9.3934L7.60796 18.9393ZM32.002 20L32.002 18.5L8.66862 18.5L8.66862 20L8.66862 21.5L32.002 21.5L32.002 20Z" fill="#1A8094"/>
</svg>
