<svg width="40" height="40" viewBox="0 0 40 40" fill="none" xmlns="http://www.w3.org/2000/svg">
<circle cx="20" cy="20" r="20" transform="matrix(1 8.78632e-08 8.69846e-08 -1 0 40)" fill="#3DB0B2"/>
<path d="M7.99805 21.5C7.16962 21.5 6.49805 20.8284 6.49805 20C6.49805 19.1716 7.16962 18.5 7.99805 18.5L7.99805 20L7.99805 21.5ZM32.392 18.9393C32.9778 19.5251 32.9778 20.4749 32.392 21.0607L22.8461 30.6066C22.2603 31.1924 21.3106 31.1924 20.7248 30.6066C20.139 30.0208 20.139 29.0711 20.7248 28.4853L29.2101 20L20.7248 11.5147C20.139 10.9289 20.139 9.97919 20.7248 9.3934C21.3106 8.80762 22.2603 8.80762 22.8461 9.3934L32.392 18.9393ZM7.99805 20L7.99805 18.5L31.3314 18.5L31.3314 20L31.3314 21.5L7.99805 21.5L7.99805 20Z" fill="#1A8094"/>
</svg>
