<svg width="85" height="85" viewBox="0 0 85 85" fill="none" xmlns="http://www.w3.org/2000/svg">
<path d="M66.4062 74.375H49.9839C52.7469 71.9121 55.3526 69.2783 57.7858 66.4891C66.9007 56.0066 71.7187 44.9559 71.7187 34.5312C71.7187 26.782 68.6404 19.3501 63.1608 13.8705C57.6812 8.3909 50.2493 5.3125 42.5 5.3125C34.7507 5.3125 27.3188 8.3909 21.8392 13.8705C16.3596 19.3501 13.2813 26.782 13.2812 34.5312C13.2812 44.9559 18.0993 56.0066 27.2142 66.4891C29.6474 69.2783 32.2531 71.9121 35.0161 74.375H18.5937C17.8893 74.375 17.2136 74.6549 16.7155 75.153C16.2174 75.6511 15.9375 76.3268 15.9375 77.0312C15.9375 77.7357 16.2174 78.4114 16.7155 78.9095C17.2136 79.4076 17.8893 79.6875 18.5937 79.6875H66.4062C67.1107 79.6875 67.7864 79.4076 68.2845 78.9095C68.7826 78.4114 69.0625 77.7357 69.0625 77.0312C69.0625 76.3268 68.7826 75.6511 68.2845 75.153C67.7864 74.6549 67.1107 74.375 66.4062 74.375ZM42.5001 23.9062C44.6015 23.9062 46.6557 24.5294 48.403 25.6969C50.1503 26.8644 51.5121 28.5238 52.3163 30.4652C53.1205 32.4067 53.3309 34.543 52.9209 36.6041C52.511 38.6651 51.499 40.5583 50.0131 42.0443C48.5272 43.5302 46.634 44.5421 44.5729 44.9521C42.5119 45.3621 40.3755 45.1517 38.4341 44.3475C36.4926 43.5433 34.8332 42.1815 33.6657 40.4342C32.4982 38.6869 31.8751 36.6327 31.8751 34.5312C31.8751 33.136 32.1499 31.7543 32.6838 30.4652C33.2178 29.1761 34.0004 28.0048 34.987 27.0182C35.9737 26.0316 37.145 25.249 38.4341 24.715C39.7231 24.1811 41.1048 23.9062 42.5001 23.9062V23.9062Z" fill="#E0CEB2"/>
</svg>
