<svg width="20" height="18" viewBox="0 0 20 18" fill="none" xmlns="http://www.w3.org/2000/svg">
<path d="M5.15527 1.01465L5.1543 1.01562C5.3094 1.02151 5.71831 1.02446 6.09961 1.26172C6.39384 1.44488 6.58704 1.70648 6.72754 1.96777L6.85254 2.22656L6.85352 2.22852C7.01133 2.59063 7.28327 3.22125 7.52441 3.77734C7.6456 4.05679 7.75987 4.31824 7.84863 4.52051C7.89306 4.62175 7.93013 4.70705 7.95898 4.77148C7.97342 4.80372 7.9853 4.8294 7.99414 4.84863C7.99771 4.8564 8.00009 4.86223 8.00195 4.86621L8.10742 5.10254C8.22311 5.40664 8.33117 5.90526 8.06152 6.43262L8.0625 6.43359C7.86936 6.82583 7.6674 7.03232 7.48242 7.23535C7.36912 7.35972 7.25567 7.4726 7.1709 7.55859C7.12707 7.60306 7.08925 7.64564 7.05176 7.68555C7.36876 8.16065 7.97868 8.9953 8.78711 9.68066C10.0482 10.7498 11.0576 11.1131 11.5098 11.2881C11.7275 11.0399 12.0023 10.6698 12.3398 10.2197C12.5848 9.89015 12.9196 9.63617 13.3389 9.53223C13.732 9.43487 14.0988 9.49489 14.3926 9.59668H14.3936C14.3955 9.59732 14.3974 9.59797 14.3994 9.59863C14.4055 9.60075 14.412 9.60234 14.418 9.60449L14.417 9.60547C14.676 9.69563 15.276 9.96651 15.7861 10.2012L17.1094 10.8193L17.1123 10.8203C17.2387 10.8808 17.4815 10.9885 17.6162 11.0586C17.7376 11.1218 17.9906 11.2571 18.1865 11.5127L18.2666 11.6299L18.2705 11.6357C18.4205 11.8882 18.4459 12.1668 18.4551 12.2852C18.4682 12.4557 18.4651 12.6446 18.4473 12.8398C18.4114 13.2326 18.3125 13.7118 18.124 14.2197V14.2207C17.8576 14.9371 17.2586 15.473 16.7031 15.8311C16.1258 16.2031 15.4492 16.4782 14.8262 16.6064L14.8232 16.6074C14.4027 16.6927 13.8871 16.7698 13.0576 16.6445C12.2684 16.5253 11.2164 16.2269 9.68457 15.6221C7.58506 14.7937 5.89265 13.3801 4.71875 12.1787C4.12746 11.5736 3.65678 11.011 3.32129 10.584C3.15337 10.3702 3.01899 10.1905 2.9209 10.0566C2.87234 9.99039 2.83211 9.93365 2.80371 9.89453C2.76789 9.84518 2.76343 9.84003 2.76953 9.84766C2.76522 9.84226 2.76103 9.83654 2.75684 9.83105C2.66241 9.70771 2.22971 9.15963 1.82324 8.39648C1.42502 7.64876 1.00005 6.60107 1 5.47266C1 3.25868 2.21722 2.13843 2.6377 1.72949C3.21341 1.16984 4.03612 1.00004 4.66992 1C4.86028 1 5.03203 1.00878 5.15527 1.01465Z" stroke="white" stroke-width="2" stroke-linejoin="round"/>
</svg>
