<svg width="28" height="27" viewBox="0 0 28 27" fill="none" xmlns="http://www.w3.org/2000/svg">
<ellipse cx="14" cy="13.1454" rx="12.25" ry="11.5023" fill="url(#paint0_linear_9661_2183)"/>
<path d="M20.1132 8.38766C20.2223 7.72589 19.5522 7.20355 18.9256 7.4619L6.44422 12.6074C5.99482 12.7927 6.0277 13.4318 6.49378 13.5712L9.06775 14.3408C9.55901 14.4877 10.091 14.4118 10.5199 14.1335L16.3231 10.3689C16.4981 10.2554 16.6888 10.489 16.5393 10.6338L12.3621 14.6777C11.9569 15.07 12.0373 15.7347 12.5247 16.0217L17.2016 18.7755C17.7261 19.0844 18.401 18.7741 18.4991 18.1789L20.1132 8.38766Z" fill="white"/>
<defs>
<linearGradient id="paint0_linear_9661_2183" x1="14" y1="1.64307" x2="14" y2="24.6477" gradientUnits="userSpaceOnUse">
<stop stop-color="#37BBFE"/>
<stop offset="1" stop-color="#007DBB"/>
</linearGradient>
</defs>
</svg>
