<svg width="28" height="28" viewBox="0 0 28 28" fill="none" xmlns="http://www.w3.org/2000/svg">
<path d="M0 14C0 6.26801 6.26801 0 14 0C21.732 0 28 6.26801 28 14C28 21.732 21.732 28 14 28C6.26801 28 0 21.732 0 14Z" fill="#4C6C91"/>
<path d="M14.7322 18.5953C14.7322 18.5953 15.0017 18.5659 15.1398 18.4204C15.2661 18.287 15.2618 18.0354 15.2618 18.0354C15.2618 18.0354 15.245 16.8603 15.8008 16.6868C16.3486 16.5161 17.0519 17.8231 17.7984 18.3257C18.3623 18.7057 18.7903 18.6225 18.7903 18.6225L20.785 18.5953C20.785 18.5953 21.828 18.5322 21.3335 17.7271C21.2926 17.6611 21.045 17.1313 19.8508 16.043C18.5996 14.9037 18.7676 15.088 20.2737 13.1171C21.1911 11.9169 21.5577 11.1842 21.443 10.8709C21.3342 10.5712 20.6593 10.6508 20.6593 10.6508L18.4141 10.6644C18.4141 10.6644 18.2476 10.6422 18.1242 10.7146C18.0036 10.7856 17.9255 10.9512 17.9255 10.9512C17.9255 10.9512 17.5705 11.8796 17.0965 12.6697C16.0966 14.3359 15.6971 14.4241 15.5335 14.3208C15.1529 14.0792 15.2479 13.3515 15.2479 12.8346C15.2479 11.2193 15.4977 10.5461 14.7622 10.3719C14.5182 10.3138 14.3385 10.2758 13.7141 10.2694C12.9128 10.2615 12.235 10.2722 11.8508 10.4565C11.5952 10.5791 11.398 10.853 11.5185 10.8687C11.6668 10.8881 12.0028 10.9576 12.181 11.1957C12.411 11.5032 12.403 12.1929 12.403 12.1929C12.403 12.1929 12.5352 14.0943 12.0941 14.3302C11.7917 14.4922 11.3768 14.1617 10.485 12.6496C10.0285 11.8753 9.68377 11.0193 9.68377 11.0193C9.68377 11.0193 9.6173 10.8594 9.49825 10.7734C9.35436 10.6694 9.1535 10.6372 9.1535 10.6372L7.02004 10.6508C7.02004 10.6508 6.69939 10.6594 6.5818 10.7963C6.47736 10.9175 6.57377 11.1691 6.57377 11.1691C6.57377 11.1691 8.24417 15.0055 10.1359 16.9391C11.8706 18.7114 13.8397 18.5953 13.8397 18.5953H14.7322Z" fill="white"/>
</svg>
