<svg width="32" height="41" viewBox="0 0 32 41" fill="none" xmlns="http://www.w3.org/2000/svg">
<path fill-rule="evenodd" clip-rule="evenodd" d="M15.2417 37.4884C15.3444 37.4951 15.2497 37.4884 14.9911 37.4737C15.0804 37.4804 15.1631 37.4817 15.2417 37.4884C15.1497 37.4804 14.8831 37.4577 14.4231 37.4177C14.7204 37.4577 14.1684 37.3951 13.6431 37.2991C13.5084 37.2831 13.3377 37.2511 13.1671 37.2031C12.8577 37.1471 12.6364 37.0924 12.4191 37.0217C12.2164 36.9817 12.0791 36.9351 11.9471 36.8831C11.6564 36.7964 11.4564 36.7244 11.2644 36.6377C11.0697 36.5737 10.9431 36.5217 10.8177 36.4577C10.6564 36.3911 10.5191 36.3284 10.4044 36.2697H10.3977C10.3044 36.2231 10.2111 36.1764 10.1231 36.1204C9.9724 36.0484 9.86973 35.9937 9.7724 35.9271C9.66706 35.8737 9.58173 35.8164 9.49773 35.7697C9.44173 35.7417 9.40573 35.7164 9.3644 35.6897C9.22973 35.6084 9.17106 35.5671 9.2524 35.6137C8.81373 35.3111 8.80573 35.3017 8.79906 35.2964C8.76173 35.2737 8.7324 35.2484 8.70973 35.2244C8.47373 35.0564 8.26306 34.8857 8.21506 34.8377C8.0084 34.6591 7.9644 34.6191 7.91773 34.5804C7.90573 34.5697 7.8964 34.5617 7.6564 34.3377C7.5724 34.2617 7.2724 33.9551 6.9884 33.6244C6.9884 33.6244 6.9884 33.6217 6.9804 33.6217H6.9884C4.71773 31.0284 3.53906 27.3777 3.53906 22.5631V16.4657C4.04573 17.5511 5.02573 18.2844 6.14306 18.2844C8.5684 18.2844 10.4951 16.0977 11.5151 14.7337C13.5164 12.0311 16.7284 6.8124 21.6311 6.8124C21.6551 6.8124 21.6804 6.8124 21.7097 6.8124C21.7404 6.8124 21.7684 6.8124 21.8017 6.8124C24.5391 6.8124 26.8951 8.75773 27.9444 11.5564V22.8631C27.9444 23.4711 27.9244 24.0604 27.8924 24.6391C27.8924 24.6604 27.8897 24.6844 27.8257 25.5244C27.8511 25.2631 27.8111 25.7124 27.7484 26.2017C27.7484 26.2031 27.7471 26.2151 27.7471 26.2284C27.7444 26.2537 27.7444 26.2724 27.7444 26.2911C27.7444 26.2764 27.7444 26.2564 27.7471 26.2284C27.7471 26.2191 27.7484 26.2111 27.7484 26.2017C27.7564 26.1631 27.7337 26.3111 27.6111 27.1897C27.7244 26.5337 27.6257 27.1897 27.4964 27.8271C27.4471 28.0857 27.3897 28.3377 27.3124 28.5884C27.2724 28.8164 27.2164 29.0284 27.1551 29.2431C27.0724 29.5204 26.9911 29.7871 26.8791 30.0617C26.8377 30.2351 26.7777 30.3844 26.7204 30.5457C26.6071 30.8351 26.4884 31.1151 26.3324 31.4151C26.2937 31.5284 26.2417 31.6284 26.1897 31.7284C26.0404 32.0364 25.8737 32.3231 25.6631 32.6444C25.6351 32.7071 25.6097 32.7537 25.5751 32.8017C25.3777 33.1151 25.1591 33.4097 24.8777 33.7551C24.8751 33.7577 24.8724 33.7617 24.8657 33.7631C24.8537 33.7937 24.8337 33.8151 24.8137 33.8404C24.2124 34.5617 23.5457 35.1764 22.7924 35.6924C22.7817 35.7044 22.7511 35.7244 22.7217 35.7484C22.6257 35.8124 22.5311 35.8737 22.4911 35.8737C22.3044 35.9991 22.1111 36.1217 21.9297 36.2244C21.9337 36.2244 21.9337 36.2231 21.9297 36.2244C21.9271 36.2324 21.9191 36.2337 21.9177 36.2337C21.6551 36.3817 21.7164 36.3524 21.9177 36.2337C21.5057 36.4311 21.3071 36.5297 21.2271 36.5644C21.2391 36.5604 21.2484 36.5564 21.2591 36.5537C21.1897 36.5857 21.1191 36.6177 21.2271 36.5644C20.8377 36.7457 20.4244 36.8951 19.9084 37.0377C19.8151 37.0751 19.7124 37.1057 19.5657 37.1284C19.2311 37.2244 18.8777 37.3004 18.3804 37.3631C18.2457 37.3951 18.0964 37.4177 17.9417 37.4244C17.4231 37.4924 16.8737 37.5191 16.3017 37.5191C16.0884 37.5191 15.8791 37.5191 15.2417 37.4884ZM21.9297 36.2244L21.9337 36.2231C21.9271 36.2297 21.9191 36.2337 21.9177 36.2337C21.9191 36.2324 21.9271 36.2297 21.9297 36.2244ZM6.0084 13.7657C5.9964 13.7591 5.9244 13.7337 5.85506 13.7044C5.8444 13.6964 5.8204 13.6884 5.79906 13.6751C5.71773 13.6364 5.67506 13.6151 5.63106 13.5884C5.6244 13.5857 5.6204 13.5817 5.61906 13.5804C5.48973 13.5111 5.4164 13.4604 5.38173 13.4377C5.31506 13.3924 5.2884 13.3724 5.26306 13.3457L5.26573 13.3484C4.63373 12.8511 4.2164 12.0737 4.18973 11.1777C4.11506 8.85373 5.7604 6.90973 6.79506 5.8804C7.9044 6.8004 9.66173 8.58307 9.73106 10.9137C9.75506 11.5684 9.56173 12.1777 9.24173 12.6484C9.2204 12.6804 9.2204 12.6804 9.21773 12.6831C9.2244 12.6777 9.2284 12.6737 9.14706 12.7897C8.83906 13.2751 8.2444 13.6964 7.6564 13.8231C7.55506 13.8484 7.56306 13.8444 7.53373 13.8511C7.53373 13.8537 7.5404 13.8537 7.41773 13.8777C7.44706 13.8751 7.3484 13.8924 7.22706 13.9071C7.1964 13.9071 7.16706 13.9124 7.1204 13.9137C7.09773 13.9204 7.07373 13.9204 7.04973 13.9204C7.0204 13.9217 6.9964 13.9284 6.96306 13.9284H6.8804C6.59373 13.9284 6.3244 13.8751 6.0084 13.7657Z" fill="white"/>
<path d="M15.2417 37.4884C15.3444 37.4951 15.2497 37.4884 14.9911 37.4737C15.0804 37.4804 15.1631 37.4817 15.2417 37.4884ZM15.2417 37.4884C15.1497 37.4804 14.8831 37.4577 14.4231 37.4177C14.7204 37.4577 14.1684 37.3951 13.6431 37.2991C13.5084 37.2831 13.3377 37.2511 13.1671 37.2031C12.8577 37.1471 12.6364 37.0924 12.4191 37.0217C12.2164 36.9817 12.0791 36.9351 11.9471 36.8831C11.6564 36.7964 11.4564 36.7244 11.2644 36.6377C11.0697 36.5737 10.9431 36.5217 10.8177 36.4577C10.6564 36.3911 10.5191 36.3284 10.4044 36.2697H10.3977C10.3044 36.2231 10.2111 36.1764 10.1231 36.1204C9.9724 36.0484 9.86973 35.9937 9.7724 35.9271C9.66706 35.8737 9.58173 35.8164 9.49773 35.7697C9.44173 35.7417 9.40573 35.7164 9.3644 35.6897C9.22973 35.6084 9.17106 35.5671 9.2524 35.6137C8.81373 35.3111 8.80573 35.3017 8.79906 35.2964C8.76173 35.2737 8.7324 35.2484 8.70973 35.2244C8.47373 35.0564 8.26306 34.8857 8.21506 34.8377C8.0084 34.6591 7.9644 34.6191 7.91773 34.5804C7.90573 34.5697 7.8964 34.5617 7.6564 34.3377C7.5724 34.2617 7.2724 33.9551 6.9884 33.6244C6.9884 33.6244 6.9884 33.6217 6.9804 33.6217H6.9884C4.71773 31.0284 3.53906 27.3777 3.53906 22.5631V16.4657C4.04573 17.5511 5.02573 18.2844 6.14306 18.2844C8.5684 18.2844 10.4951 16.0977 11.5151 14.7337C13.5164 12.0311 16.7284 6.8124 21.6311 6.8124C21.6551 6.8124 21.6804 6.8124 21.7097 6.8124C21.7404 6.8124 21.7684 6.8124 21.8017 6.8124C24.5391 6.8124 26.8951 8.75773 27.9444 11.5564V22.8631C27.9444 23.4711 27.9244 24.0604 27.8924 24.6391C27.8924 24.6604 27.8897 24.6844 27.8257 25.5244C27.8511 25.2631 27.8111 25.7124 27.7484 26.2017M15.2417 37.4884C15.8791 37.5191 16.0884 37.5191 16.3017 37.5191C16.8737 37.5191 17.4231 37.4924 17.9417 37.4244C18.0964 37.4177 18.2457 37.3951 18.3804 37.3631C18.8777 37.3004 19.2311 37.2244 19.5657 37.1284C19.7124 37.1057 19.8151 37.0751 19.9084 37.0377C20.4244 36.8951 20.8377 36.7457 21.2271 36.5644M27.7484 26.2017C27.7484 26.2031 27.7471 26.2151 27.7471 26.2284M27.7484 26.2017C27.7484 26.2111 27.7471 26.2191 27.7471 26.2284M27.7484 26.2017C27.7564 26.1631 27.7337 26.3111 27.6111 27.1897C27.7244 26.5337 27.6257 27.1897 27.4964 27.8271C27.4471 28.0857 27.3897 28.3377 27.3124 28.5884C27.2724 28.8164 27.2164 29.0284 27.1551 29.2431C27.0724 29.5204 26.9911 29.7871 26.8791 30.0617C26.8377 30.2351 26.7777 30.3844 26.7204 30.5457C26.6071 30.8351 26.4884 31.1151 26.3324 31.4151C26.2937 31.5284 26.2417 31.6284 26.1897 31.7284C26.0404 32.0364 25.8737 32.3231 25.6631 32.6444C25.6351 32.7071 25.6097 32.7537 25.5751 32.8017C25.3777 33.1151 25.1591 33.4097 24.8777 33.7551C24.8751 33.7577 24.8724 33.7617 24.8657 33.7631C24.8537 33.7937 24.8337 33.8151 24.8137 33.8404C24.2124 34.5617 23.5457 35.1764 22.7924 35.6924C22.7817 35.7044 22.7511 35.7244 22.7217 35.7484C22.6257 35.8124 22.5311 35.8737 22.4911 35.8737C22.3044 35.9991 22.1111 36.1217 21.9297 36.2244M21.2271 36.5644C21.3071 36.5297 21.5057 36.4311 21.9177 36.2337M21.2271 36.5644C21.2391 36.5604 21.2484 36.5564 21.2591 36.5537C21.1897 36.5857 21.1191 36.6177 21.2271 36.5644ZM27.7471 26.2284C27.7444 26.2537 27.7444 26.2724 27.7444 26.2911C27.7444 26.2764 27.7444 26.2564 27.7471 26.2284ZM21.9297 36.2244C21.9337 36.2244 21.9337 36.2231 21.9297 36.2244ZM21.9297 36.2244C21.9271 36.2324 21.9191 36.2337 21.9177 36.2337M21.9297 36.2244L21.9337 36.2231C21.9271 36.2297 21.9191 36.2337 21.9177 36.2337M21.9297 36.2244C21.9271 36.2297 21.9191 36.2324 21.9177 36.2337M21.9177 36.2337C21.6551 36.3817 21.7164 36.3524 21.9177 36.2337ZM6.0084 13.7657C5.9964 13.7591 5.9244 13.7337 5.85506 13.7044C5.8444 13.6964 5.8204 13.6884 5.79906 13.6751C5.71773 13.6364 5.67506 13.6151 5.63106 13.5884C5.6244 13.5857 5.6204 13.5817 5.61906 13.5804C5.48973 13.5111 5.4164 13.4604 5.38173 13.4377C5.31506 13.3924 5.2884 13.3724 5.26306 13.3457L5.26573 13.3484C4.63373 12.8511 4.2164 12.0737 4.18973 11.1777C4.11506 8.85373 5.7604 6.90973 6.79506 5.8804C7.9044 6.8004 9.66173 8.58307 9.73106 10.9137C9.75506 11.5684 9.56173 12.1777 9.24173 12.6484C9.2204 12.6804 9.2204 12.6804 9.21773 12.6831C9.2244 12.6777 9.2284 12.6737 9.14706 12.7897C8.83906 13.2751 8.2444 13.6964 7.6564 13.8231C7.55506 13.8484 7.56306 13.8444 7.53373 13.8511C7.53373 13.8537 7.5404 13.8537 7.41773 13.8777C7.44706 13.8751 7.3484 13.8924 7.22706 13.9071C7.1964 13.9071 7.16706 13.9124 7.1204 13.9137C7.09773 13.9204 7.07373 13.9204 7.04973 13.9204C7.0204 13.9217 6.9964 13.9284 6.96306 13.9284H6.8804C6.59373 13.9284 6.3244 13.8751 6.0084 13.7657Z" stroke="white" stroke-width="0.0226667" stroke-miterlimit="10"/>
<path d="M4.19013 11.2013C4.1128 8.87592 5.75946 6.93192 6.79546 5.90259C7.89813 6.82659 9.65546 8.60659 9.73146 10.9386C9.78613 12.5226 8.5808 13.8653 7.04346 13.9426C5.52346 14.0173 4.23546 12.7906 4.19013 11.2013Z" fill="#8FD2E8"/>
<path d="M9.34377 9.23418C9.5851 9.68885 9.72243 10.4982 9.72243 11.0608C9.65177 12.7582 8.45577 13.9448 6.8731 13.9448C6.2771 13.9448 5.7171 13.7128 5.25977 13.3702C6.56243 13.5022 9.50643 10.2768 9.34377 9.23418Z" fill="#3F92AE" fill-opacity="0.388235"/>
<path d="M6.98582 33.6458C4.71649 31.0485 3.53516 27.4031 3.53516 22.5858V16.5791C4.05516 17.6738 5.03649 18.4151 6.16849 18.4151C8.60982 18.4151 10.5645 16.2165 11.5912 14.8365C13.6112 12.1018 16.8538 6.83245 21.7992 6.83245C24.5365 6.83245 26.8898 8.78446 27.9378 11.5818V22.8845C27.9378 27.8031 26.8525 31.4165 24.8072 33.8645C22.7685 36.3031 19.9658 37.5445 16.2978 37.5445C12.3125 37.5445 9.23382 36.2298 6.98582 33.6458Z" fill="#18A9D9" fill-opacity="0.368627"/>
<path d="M3.53516 22.2347V22.2067V16.4881C4.04316 17.5694 5.02316 18.3067 6.14182 18.3067C8.56316 18.3067 10.4885 16.1267 11.5138 14.7534C13.5138 12.0547 16.7258 6.83208 21.6285 6.83208C24.5592 6.83208 27.0525 9.09608 27.9378 12.2427V18.0854V17.9587C27.0525 14.7441 24.5592 12.2827 21.6285 12.2827C16.7258 12.2827 13.5138 17.8067 11.5138 20.5094C10.5018 21.8787 8.56316 24.0601 6.14182 24.0601C5.01916 24.0601 4.04316 23.3214 3.53516 22.2347Z" fill="#7BCEE1" fill-opacity="0.580392"/>
<path d="M3.75916 25.9831C3.61116 24.9191 3.53516 23.7911 3.53516 22.5845V22.2405C4.04316 23.3298 5.02316 24.0605 6.14182 24.0605C8.56316 24.0605 10.4885 21.8791 11.5138 20.5098C13.5138 17.8071 16.7258 12.2845 21.6285 12.2845C16.3845 13.2898 13.6872 19.3965 11.9112 22.4725C11.0125 24.0338 9.23116 26.5791 6.64716 27.0738C5.52716 27.2898 4.45249 26.8391 3.75916 25.9831Z" fill="#77C4DE"/>
<path d="M7.91406 34.5991C15.2407 32.8018 18.2634 17.4738 25.0661 17.4738C25.9141 17.4738 26.9741 17.8471 27.9394 18.8325V22.8845C27.9394 27.7551 26.8781 31.3445 24.8661 33.7858C24.2207 34.5471 23.4994 35.2031 22.7194 35.7698C20.9714 36.9458 18.8461 37.5445 16.2994 37.5445C12.8341 37.5445 10.0661 36.5538 7.91406 34.5991Z" fill="#0085B1"/>
<path d="M6.98661 33.6442C6.98128 33.6442 6.98128 33.6442 6.97461 33.6442C14.7279 33.5082 18.0693 17.4896 24.6439 17.4896C18.4893 18.6642 16.8626 33.4922 10.3959 36.2896C9.09594 35.6536 7.96528 34.7696 6.98661 33.6442Z" fill="#00677E"/>
<path fill-rule="evenodd" clip-rule="evenodd" d="M22.4178 33.2974L21.6298 29.7787L20.1858 30.6174L21.0244 29.1441L18.2324 28.4081L21.0164 27.6401L20.1711 26.1787L21.6191 27.0014L22.3778 23.4707L23.1684 26.9934L24.6071 26.1587L23.7764 27.6241L26.5658 28.3707L23.7818 29.1334L24.6311 30.5974L23.1751 29.7787L22.4178 33.2974Z" fill="white" stroke="white" stroke-width="0.0226667" stroke-miterlimit="10"/>
<path fill-rule="evenodd" clip-rule="evenodd" d="M4.46267 36.3813C1.508 33.3947 0 29.0147 0 23.1813V0H2.21467V22.5853C2.21467 27.612 3.448 31.6013 5.98667 34.512C8.528 37.4253 11.9867 38.864 16.2987 38.864C20.3107 38.864 23.4987 37.488 25.8213 34.7107C28.148 31.9373 29.26 27.968 29.26 22.884V0H31.4853V23.5947C31.4853 29.4787 30.0213 33.7933 27.1933 36.6173C24.3333 39.476 20.7213 40.9107 16.2987 40.9107C11.404 40.9107 7.47067 39.3893 4.46267 36.3813Z" fill="#191919"/>
</svg>
