<svg width="283" height="41" viewBox="0 0 283 41" fill="none" xmlns="http://www.w3.org/2000/svg">
<path fill-rule="evenodd" clip-rule="evenodd" d="M15.2417 37.4889C15.3444 37.4955 15.2497 37.4889 14.9911 37.4742C15.0804 37.4809 15.1631 37.4822 15.2417 37.4889C15.1497 37.4809 14.8831 37.4582 14.4231 37.4182C14.7204 37.4582 14.1684 37.3955 13.6431 37.2995C13.5084 37.2835 13.3377 37.2515 13.1671 37.2035C12.8577 37.1475 12.6364 37.0929 12.4191 37.0222C12.2164 36.9822 12.0791 36.9355 11.9471 36.8835C11.6564 36.7969 11.4564 36.7249 11.2644 36.6382C11.0697 36.5742 10.9431 36.5222 10.8177 36.4582C10.6564 36.3915 10.5191 36.3289 10.4044 36.2702H10.3977C10.3044 36.2235 10.2111 36.1769 10.1231 36.1209C9.9724 36.0489 9.86973 35.9942 9.7724 35.9275C9.66706 35.8742 9.58173 35.8169 9.49773 35.7702C9.44173 35.7422 9.40573 35.7169 9.3644 35.6902C9.22973 35.6089 9.17106 35.5675 9.2524 35.6142C8.81373 35.3115 8.80573 35.3022 8.79906 35.2969C8.76173 35.2742 8.7324 35.2489 8.70973 35.2249C8.47373 35.0569 8.26306 34.8862 8.21506 34.8382C8.0084 34.6595 7.9644 34.6195 7.91773 34.5809C7.90573 34.5702 7.8964 34.5622 7.6564 34.3382C7.5724 34.2622 7.2724 33.9555 6.9884 33.6249C6.9884 33.6249 6.9884 33.6222 6.9804 33.6222H6.9884C4.71773 31.0289 3.53906 27.3782 3.53906 22.5635V16.4662C4.04573 17.5515 5.02573 18.2849 6.14306 18.2849C8.5684 18.2849 10.4951 16.0982 11.5151 14.7342C13.5164 12.0315 16.7284 6.81287 21.6311 6.81287C21.6551 6.81287 21.6804 6.81287 21.7097 6.81287C21.7404 6.81287 21.7684 6.81287 21.8017 6.81287C24.5391 6.81287 26.8951 8.7582 27.9444 11.5569V22.8635C27.9444 23.4715 27.9244 24.0609 27.8924 24.6395C27.8924 24.6609 27.8897 24.6849 27.8257 25.5249C27.8511 25.2635 27.8111 25.7129 27.7484 26.2022C27.7484 26.2035 27.7471 26.2155 27.7471 26.2289C27.7444 26.2542 27.7444 26.2729 27.7444 26.2915C27.7444 26.2769 27.7444 26.2569 27.7471 26.2289C27.7471 26.2195 27.7484 26.2115 27.7484 26.2022C27.7564 26.1635 27.7337 26.3115 27.6111 27.1902C27.7244 26.5342 27.6257 27.1902 27.4964 27.8275C27.4471 28.0862 27.3897 28.3382 27.3124 28.5889C27.2724 28.8169 27.2164 29.0289 27.1551 29.2435C27.0724 29.5209 26.9911 29.7875 26.8791 30.0622C26.8377 30.2355 26.7777 30.3849 26.7204 30.5462C26.6071 30.8355 26.4884 31.1155 26.3324 31.4155C26.2937 31.5289 26.2417 31.6289 26.1897 31.7289C26.0404 32.0369 25.8737 32.3235 25.6631 32.6449C25.6351 32.7075 25.6097 32.7542 25.5751 32.8022C25.3777 33.1155 25.1591 33.4102 24.8777 33.7555C24.8751 33.7582 24.8724 33.7622 24.8657 33.7635C24.8537 33.7942 24.8337 33.8155 24.8137 33.8409C24.2124 34.5622 23.5457 35.1769 22.7924 35.6929C22.7817 35.7049 22.7511 35.7249 22.7217 35.7489C22.6257 35.8129 22.5311 35.8742 22.4911 35.8742C22.3044 35.9995 22.1111 36.1222 21.9297 36.2249C21.9337 36.2249 21.9337 36.2235 21.9297 36.2249C21.9271 36.2329 21.9191 36.2342 21.9177 36.2342C21.6551 36.3822 21.7164 36.3529 21.9177 36.2342C21.5057 36.4315 21.3071 36.5302 21.2271 36.5649C21.2391 36.5609 21.2484 36.5569 21.2591 36.5542C21.1897 36.5862 21.1191 36.6182 21.2271 36.5649C20.8377 36.7462 20.4244 36.8955 19.9084 37.0382C19.8151 37.0755 19.7124 37.1062 19.5657 37.1289C19.2311 37.2249 18.8777 37.3009 18.3804 37.3635C18.2457 37.3955 18.0964 37.4182 17.9417 37.4249C17.4231 37.4929 16.8737 37.5195 16.3017 37.5195C16.0884 37.5195 15.8791 37.5195 15.2417 37.4889ZM21.9297 36.2249L21.9337 36.2235C21.9271 36.2302 21.9191 36.2342 21.9177 36.2342C21.9191 36.2329 21.9271 36.2302 21.9297 36.2249ZM6.0084 13.7662C5.9964 13.7595 5.9244 13.7342 5.85506 13.7049C5.8444 13.6969 5.8204 13.6889 5.79906 13.6755C5.71773 13.6369 5.67506 13.6155 5.63106 13.5889C5.6244 13.5862 5.6204 13.5822 5.61906 13.5809C5.48973 13.5115 5.4164 13.4609 5.38173 13.4382C5.31506 13.3929 5.2884 13.3729 5.26306 13.3462L5.26573 13.3489C4.63373 12.8515 4.2164 12.0742 4.18973 11.1782C4.11506 8.8542 5.7604 6.9102 6.79506 5.88086C7.9044 6.80086 9.66173 8.58353 9.73106 10.9142C9.75506 11.5689 9.56173 12.1782 9.24173 12.6489C9.2204 12.6809 9.2204 12.6809 9.21773 12.6835C9.2244 12.6782 9.2284 12.6742 9.14706 12.7902C8.83906 13.2755 8.2444 13.6969 7.6564 13.8235C7.55506 13.8489 7.56306 13.8449 7.53373 13.8515C7.53373 13.8542 7.5404 13.8542 7.41773 13.8782C7.44706 13.8755 7.3484 13.8929 7.22706 13.9075C7.1964 13.9075 7.16706 13.9129 7.1204 13.9142C7.09773 13.9209 7.07373 13.9209 7.04973 13.9209C7.0204 13.9222 6.9964 13.9289 6.96306 13.9289H6.8804C6.59373 13.9289 6.3244 13.8755 6.0084 13.7662Z" fill="white"/>
<path d="M15.2417 37.4889C15.3444 37.4955 15.2497 37.4889 14.9911 37.4742C15.0804 37.4809 15.1631 37.4822 15.2417 37.4889ZM15.2417 37.4889C15.1497 37.4809 14.8831 37.4582 14.4231 37.4182C14.7204 37.4582 14.1684 37.3955 13.6431 37.2995C13.5084 37.2835 13.3377 37.2515 13.1671 37.2035C12.8577 37.1475 12.6364 37.0929 12.4191 37.0222C12.2164 36.9822 12.0791 36.9355 11.9471 36.8835C11.6564 36.7969 11.4564 36.7249 11.2644 36.6382C11.0697 36.5742 10.9431 36.5222 10.8177 36.4582C10.6564 36.3915 10.5191 36.3289 10.4044 36.2702H10.3977C10.3044 36.2235 10.2111 36.1769 10.1231 36.1209C9.9724 36.0489 9.86973 35.9942 9.7724 35.9275C9.66706 35.8742 9.58173 35.8169 9.49773 35.7702C9.44173 35.7422 9.40573 35.7169 9.3644 35.6902C9.22973 35.6089 9.17106 35.5675 9.2524 35.6142C8.81373 35.3115 8.80573 35.3022 8.79906 35.2969C8.76173 35.2742 8.7324 35.2489 8.70973 35.2249C8.47373 35.0569 8.26306 34.8862 8.21506 34.8382C8.0084 34.6595 7.9644 34.6195 7.91773 34.5809C7.90573 34.5702 7.8964 34.5622 7.6564 34.3382C7.5724 34.2622 7.2724 33.9555 6.9884 33.6249C6.9884 33.6249 6.9884 33.6222 6.9804 33.6222H6.9884C4.71773 31.0289 3.53906 27.3782 3.53906 22.5635V16.4662C4.04573 17.5515 5.02573 18.2849 6.14306 18.2849C8.5684 18.2849 10.4951 16.0982 11.5151 14.7342C13.5164 12.0315 16.7284 6.81287 21.6311 6.81287C21.6551 6.81287 21.6804 6.81287 21.7097 6.81287C21.7404 6.81287 21.7684 6.81287 21.8017 6.81287C24.5391 6.81287 26.8951 8.7582 27.9444 11.5569V22.8635C27.9444 23.4715 27.9244 24.0609 27.8924 24.6395C27.8924 24.6609 27.8897 24.6849 27.8257 25.5249C27.8511 25.2635 27.8111 25.7129 27.7484 26.2022M15.2417 37.4889C15.8791 37.5195 16.0884 37.5195 16.3017 37.5195C16.8737 37.5195 17.4231 37.4929 17.9417 37.4249C18.0964 37.4182 18.2457 37.3955 18.3804 37.3635C18.8777 37.3009 19.2311 37.2249 19.5657 37.1289C19.7124 37.1062 19.8151 37.0755 19.9084 37.0382C20.4244 36.8955 20.8377 36.7462 21.2271 36.5649M27.7484 26.2022C27.7484 26.2035 27.7471 26.2155 27.7471 26.2289M27.7484 26.2022C27.7484 26.2115 27.7471 26.2195 27.7471 26.2289M27.7484 26.2022C27.7564 26.1635 27.7337 26.3115 27.6111 27.1902C27.7244 26.5342 27.6257 27.1902 27.4964 27.8275C27.4471 28.0862 27.3897 28.3382 27.3124 28.5889C27.2724 28.8169 27.2164 29.0289 27.1551 29.2435C27.0724 29.5209 26.9911 29.7875 26.8791 30.0622C26.8377 30.2355 26.7777 30.3849 26.7204 30.5462C26.6071 30.8355 26.4884 31.1155 26.3324 31.4155C26.2937 31.5289 26.2417 31.6289 26.1897 31.7289C26.0404 32.0369 25.8737 32.3235 25.6631 32.6449C25.6351 32.7075 25.6097 32.7542 25.5751 32.8022C25.3777 33.1155 25.1591 33.4102 24.8777 33.7555C24.8751 33.7582 24.8724 33.7622 24.8657 33.7635C24.8537 33.7942 24.8337 33.8155 24.8137 33.8409C24.2124 34.5622 23.5457 35.1769 22.7924 35.6929C22.7817 35.7049 22.7511 35.7249 22.7217 35.7489C22.6257 35.8129 22.5311 35.8742 22.4911 35.8742C22.3044 35.9995 22.1111 36.1222 21.9297 36.2249M21.2271 36.5649C21.3071 36.5302 21.5057 36.4315 21.9177 36.2342M21.2271 36.5649C21.2391 36.5609 21.2484 36.5569 21.2591 36.5542C21.1897 36.5862 21.1191 36.6182 21.2271 36.5649ZM27.7471 26.2289C27.7444 26.2542 27.7444 26.2729 27.7444 26.2915C27.7444 26.2769 27.7444 26.2569 27.7471 26.2289ZM21.9297 36.2249C21.9337 36.2249 21.9337 36.2235 21.9297 36.2249ZM21.9297 36.2249C21.9271 36.2329 21.9191 36.2342 21.9177 36.2342M21.9297 36.2249L21.9337 36.2235C21.9271 36.2302 21.9191 36.2342 21.9177 36.2342M21.9297 36.2249C21.9271 36.2302 21.9191 36.2329 21.9177 36.2342M21.9177 36.2342C21.6551 36.3822 21.7164 36.3529 21.9177 36.2342ZM6.0084 13.7662C5.9964 13.7595 5.9244 13.7342 5.85506 13.7049C5.8444 13.6969 5.8204 13.6889 5.79906 13.6755C5.71773 13.6369 5.67506 13.6155 5.63106 13.5889C5.6244 13.5862 5.6204 13.5822 5.61906 13.5809C5.48973 13.5115 5.4164 13.4609 5.38173 13.4382C5.31506 13.3929 5.2884 13.3729 5.26306 13.3462L5.26573 13.3489C4.63373 12.8515 4.2164 12.0742 4.18973 11.1782C4.11506 8.8542 5.7604 6.9102 6.79506 5.88086C7.9044 6.80086 9.66173 8.58353 9.73106 10.9142C9.75506 11.5689 9.56173 12.1782 9.24173 12.6489C9.2204 12.6809 9.2204 12.6809 9.21773 12.6835C9.2244 12.6782 9.2284 12.6742 9.14706 12.7902C8.83906 13.2755 8.2444 13.6969 7.6564 13.8235C7.55506 13.8489 7.56306 13.8449 7.53373 13.8515C7.53373 13.8542 7.5404 13.8542 7.41773 13.8782C7.44706 13.8755 7.3484 13.8929 7.22706 13.9075C7.1964 13.9075 7.16706 13.9129 7.1204 13.9142C7.09773 13.9209 7.07373 13.9209 7.04973 13.9209C7.0204 13.9222 6.9964 13.9289 6.96306 13.9289H6.8804C6.59373 13.9289 6.3244 13.8755 6.0084 13.7662Z" stroke="white" stroke-width="0.0226667" stroke-miterlimit="10"/>
<path d="M4.19013 11.2017C4.1128 8.87639 5.75946 6.93239 6.79546 5.90305C7.89813 6.82705 9.65546 8.60705 9.73146 10.9391C9.78613 12.5231 8.5808 13.8657 7.04346 13.9431C5.52346 14.0177 4.23546 12.7911 4.19013 11.2017Z" fill="#8FD2E8"/>
<path d="M9.34377 9.23464C9.5851 9.68931 9.72243 10.4986 9.72243 11.0613C9.65177 12.7586 8.45577 13.9453 6.8731 13.9453C6.2771 13.9453 5.7171 13.7133 5.25977 13.3706C6.56243 13.5026 9.50643 10.2773 9.34377 9.23464Z" fill="#3F92AE" fill-opacity="0.388235"/>
<path d="M6.98582 33.6463C4.71649 31.0489 3.53516 27.4036 3.53516 22.5863V16.5796C4.05516 17.6743 5.03649 18.4156 6.16849 18.4156C8.60982 18.4156 10.5645 16.2169 11.5912 14.8369C13.6112 12.1023 16.8538 6.83292 21.7992 6.83292C24.5365 6.83292 26.8898 8.78492 27.9378 11.5823V22.8849C27.9378 27.8036 26.8525 31.4169 24.8072 33.8649C22.7685 36.3036 19.9658 37.5449 16.2978 37.5449C12.3125 37.5449 9.23382 36.2303 6.98582 33.6463Z" fill="#18A9D9" fill-opacity="0.368627"/>
<path d="M3.53516 22.2352V22.2072V16.4885C4.04316 17.5699 5.02316 18.3072 6.14182 18.3072C8.56316 18.3072 10.4885 16.1272 11.5138 14.7539C13.5138 12.0552 16.7258 6.83255 21.6285 6.83255C24.5592 6.83255 27.0525 9.09655 27.9378 12.2432V18.0859V17.9592C27.0525 14.7445 24.5592 12.2832 21.6285 12.2832C16.7258 12.2832 13.5138 17.8072 11.5138 20.5099C10.5018 21.8792 8.56316 24.0605 6.14182 24.0605C5.01916 24.0605 4.04316 23.3219 3.53516 22.2352Z" fill="#7BCEE1" fill-opacity="0.580392"/>
<path d="M3.75916 25.9836C3.61116 24.9196 3.53516 23.7916 3.53516 22.5849V22.2409C4.04316 23.3303 5.02316 24.0609 6.14182 24.0609C8.56316 24.0609 10.4885 21.8796 11.5138 20.5103C13.5138 17.8076 16.7258 12.2849 21.6285 12.2849C16.3845 13.2903 13.6872 19.3969 11.9112 22.4729C11.0125 24.0343 9.23116 26.5796 6.64716 27.0743C5.52716 27.2903 4.45249 26.8396 3.75916 25.9836Z" fill="#77C4DE"/>
<path d="M7.91406 34.5996C15.2407 32.8023 18.2634 17.4743 25.0661 17.4743C25.9141 17.4743 26.9741 17.8476 27.9394 18.8329V22.8849C27.9394 27.7556 26.8781 31.3449 24.8661 33.7863C24.2207 34.5476 23.4994 35.2036 22.7194 35.7703C20.9714 36.9463 18.8461 37.5449 16.2994 37.5449C12.8341 37.5449 10.0661 36.5543 7.91406 34.5996Z" fill="#0085B1"/>
<path d="M6.98661 33.6447C6.98128 33.6447 6.98128 33.6447 6.97461 33.6447C14.7279 33.5087 18.0693 17.49 24.6439 17.49C18.4893 18.6647 16.8626 33.4927 10.3959 36.29C9.09594 35.654 7.96528 34.77 6.98661 33.6447Z" fill="#00677E"/>
<path fill-rule="evenodd" clip-rule="evenodd" d="M22.4178 33.2979L21.6298 29.7792L20.1858 30.6179L21.0244 29.1445L18.2324 28.4085L21.0164 27.6405L20.1711 26.1792L21.6191 27.0019L22.3778 23.4712L23.1684 26.9939L24.6071 26.1592L23.7764 27.6245L26.5658 28.3712L23.7818 29.1339L24.6311 30.5979L23.1751 29.7792L22.4178 33.2979Z" fill="white" stroke="white" stroke-width="0.0226667" stroke-miterlimit="10"/>
<path fill-rule="evenodd" clip-rule="evenodd" d="M4.46267 36.3818C1.508 33.3951 0 29.0151 0 23.1818V0.000465393H2.21467V22.5858C2.21467 27.6125 3.448 31.6018 5.98667 34.5125C8.528 37.4258 11.9867 38.8645 16.2987 38.8645C20.3107 38.8645 23.4987 37.4885 25.8213 34.7111C28.148 31.9378 29.26 27.9685 29.26 22.8845V0.000465393H31.4853V23.5951C31.4853 29.4791 30.0213 33.7938 27.1933 36.6178C24.3333 39.4765 20.7213 40.9111 16.2987 40.9111C11.404 40.9111 7.47067 39.3898 4.46267 36.3818Z" fill="#191919"/>
<path d="M133.825 2.87801H135.43V14.7487C135.43 17.6847 134.699 19.882 133.242 21.3407C131.785 22.7993 129.937 23.5273 127.701 23.5273C125.233 23.5273 123.229 22.7607 121.691 21.2233C120.177 19.6887 119.418 17.4607 119.418 14.5447V2.87801H121.021V14.2527C121.021 16.6847 121.619 18.5833 122.814 19.9553C124.01 21.3247 125.639 22.0127 127.701 22.0127C129.605 22.0127 131.103 21.3607 132.191 20.0567C133.281 18.7553 133.825 16.8673 133.825 14.3993V2.87801Z" fill="black"/>
<path d="M40.1094 23.2148L48.9747 2.70018H50.2814L50.4134 3.00951L49.5894 4.92151L49.584 4.90951L45.3414 14.7922H53.7947L50.5294 7.12418L51.3587 5.20418L59.1427 23.2148H57.4254L54.4654 16.3002H44.7L41.7347 23.2148H40.1094Z" fill="black"/>
<path d="M67.082 23.2148V2.87618H68.682V5.46551V5.46284V23.2148H67.082ZM84.7234 23.2148V5.37351L76.9034 16.3602H76.642L70.3794 7.78951V5.15084L76.9034 14.0322L84.7807 2.87618H86.3234V23.2148H84.7234Z" fill="black"/>
<path d="M99.0078 23.2148V2.87618C99.5291 2.87618 100.065 2.87084 100.608 2.86551V4.38151V13.5082C102.002 13.6082 103.106 13.6588 103.921 13.6588C105.7 13.6588 107.082 13.2322 108.064 12.3802C109.042 11.5228 109.529 10.3748 109.529 8.91884C109.529 7.48684 109.081 6.36018 108.177 5.54818C107.278 4.73218 105.924 4.33084 104.125 4.33084C103.729 4.33084 103.124 4.33751 102.308 4.35218V2.83084C102.877 2.81884 103.43 2.81751 103.981 2.81751C105.332 2.81751 106.502 2.99218 107.48 3.34018C108.458 3.68818 109.209 4.16284 109.73 4.76418C110.253 5.36418 110.634 6.00951 110.868 6.69884C111.097 7.38551 111.214 8.13351 111.214 8.94684C111.214 10.7108 110.601 12.1855 109.381 13.3695C108.142 14.5695 106.34 15.1682 103.981 15.1682C102.641 15.1682 101.52 15.1282 100.608 15.0522V23.2148H99.0078Z" fill="black"/>
<path d="M145.664 23.2148V21.7455H157.987V23.2148H145.664ZM145.664 20.0042V2.87618H147.264V20.0042H145.664Z" fill="black"/>
<path d="M165.811 23.2148V21.7455H174.849V21.7068H178.133V23.2148H165.811ZM165.811 20.0042V2.87618H167.408V20.0042H165.811Z" fill="black"/>
<path d="M183.338 23.2148L192.201 2.70018H193.509L193.634 2.99351L190.755 9.66418L190.769 9.66951L188.567 14.7922H197.029L193.75 7.10951L194.585 5.18684L202.373 23.2148H200.657L197.693 16.3002H187.931L184.962 23.2148H183.338Z" fill="black"/>
<path fill-rule="evenodd" clip-rule="evenodd" d="M210.992 11.6087C212.094 11.11 213.398 11.606 213.894 12.7087C214.392 13.8127 213.898 15.114 212.792 15.6114C211.689 16.11 210.388 15.6154 209.89 14.51C209.394 13.406 209.886 12.1047 210.992 11.6087Z" fill="black"/>
<path d="M224.373 23.2949H223.49V2.64959H224.404L233.162 14.5949L241.657 2.64959H242.513V23.2949H241.657V3.97759L233.194 15.8923H233.045L224.373 4.06425V23.2949Z" fill="black"/>
<path d="M260.856 23.2949H249.354V2.64959H260.563V3.47492H250.239V12.3829H259.676V13.2083H250.239V22.4683H260.856V23.2949Z" fill="black"/>
<path d="M266.526 23.2968H266.32V2.65014H266.644C267.45 2.65014 268.176 2.63947 268.826 2.6208C270.123 2.58213 270.951 2.56214 271.304 2.56214C273.291 2.56214 275.043 2.8328 276.568 3.3728C278.094 3.9128 279.307 4.65947 280.211 5.61414C281.114 6.5688 281.79 7.63414 282.231 8.8128C282.674 9.99414 282.895 11.2728 282.895 12.6461C282.895 15.7355 281.862 18.3021 279.798 20.3461C277.772 22.3515 274.863 23.3555 271.068 23.3555C270.183 23.3555 269.416 23.3448 268.767 23.3248C268.119 23.3048 267.371 23.2968 266.526 23.2968ZM271.244 3.38614C270.891 3.38614 270.163 3.40614 269.063 3.44747C268.531 3.46614 267.914 3.4768 267.203 3.4768V22.4688C267.558 22.4688 267.931 22.4688 268.326 22.4688C268.719 22.4688 269.071 22.4755 269.387 22.4848C269.7 22.4941 269.986 22.5048 270.242 22.5141C270.496 22.5235 270.706 22.5288 270.86 22.5288H271.098C274.596 22.5288 277.28 21.6048 279.147 19.7568C281.036 17.8888 281.979 15.5181 281.979 12.6461C281.979 9.93414 281.086 7.7128 279.296 5.98347C277.546 4.2528 274.863 3.38614 271.244 3.38614Z" fill="black"/>
<path d="M40.9355 39.874H40.1035V29.2887H40.9502L45.2142 35.0954L49.3129 29.2887H50.1142V39.874H49.2822V30.59L45.2142 36.306H45.0782L40.9355 30.6354V39.874Z" fill="black"/>
<path d="M61.7388 39.874H60.9068V34.8687H54.2988V39.874H53.4668V29.2887H54.2988V34.0834H60.9068V29.2887H61.7388V39.874Z" fill="black"/>
<path d="M64.2344 34.5818C64.2344 33.0391 64.7384 31.7484 65.7464 30.7098C66.7557 29.6724 68.0197 29.1524 69.5424 29.1524C71.0544 29.1524 72.3144 29.6671 73.3237 30.6951C74.341 31.7138 74.8504 33.0084 74.8504 34.5818C74.8504 36.1244 74.341 37.4191 73.3237 38.4684C72.3144 39.4964 71.0544 40.0098 69.5424 40.0098C68.0304 40.0098 66.765 39.5018 65.7464 38.4831C64.7384 37.4644 64.2344 36.1644 64.2344 34.5818ZM65.1117 34.5818C65.1117 35.8924 65.5357 36.9964 66.3824 37.8938C67.2384 38.7804 68.293 39.2244 69.5424 39.2244C70.833 39.2244 71.8917 38.7804 72.7184 37.8938C73.5544 36.9964 73.973 35.8924 73.973 34.5818C73.973 33.2404 73.545 32.1364 72.6877 31.2698C71.841 30.3831 70.793 29.9391 69.5424 29.9391C68.2824 29.9391 67.229 30.3831 66.3824 31.2698C65.5357 32.1471 65.1117 33.2511 65.1117 34.5818Z" fill="black"/>
<path d="M78.1777 39.874H77.3457V29.2887H83.183V30.0754H78.1777V39.874Z" fill="black"/>
<path d="M83.6641 34.5818C83.6641 33.0391 84.1681 31.7484 85.1761 30.7098C86.1854 29.6724 87.4494 29.1524 88.9721 29.1524C90.4841 29.1524 91.7441 29.6671 92.7534 30.6951C93.7707 31.7138 94.2801 33.0084 94.2801 34.5818C94.2801 36.1244 93.7707 37.4191 92.7534 38.4684C91.7441 39.4964 90.4841 40.0098 88.9721 40.0098C87.4601 40.0098 86.1947 39.5018 85.1761 38.4831C84.1681 37.4644 83.6641 36.1644 83.6641 34.5818ZM84.5414 34.5818C84.5414 35.8924 84.9654 36.9964 85.8121 37.8938C86.6681 38.7804 87.7227 39.2244 88.9721 39.2244C90.2627 39.2244 91.3214 38.7804 92.1481 37.8938C92.9841 36.9964 93.4027 35.8924 93.4027 34.5818C93.4027 33.2404 92.9747 32.1364 92.1174 31.2698C91.2707 30.3831 90.2227 29.9391 88.9721 29.9391C87.7121 29.9391 86.6587 30.3831 85.8121 31.2698C84.9654 32.1471 84.5414 33.2511 84.5414 34.5818Z" fill="black"/>
<path d="M105.004 39.874H104.172V30.0754H97.6093V39.874H96.7773V29.2887H105.004V39.874Z" fill="black"/>
<path d="M109.193 35.6247V39.874H108.361V29.2887C108.775 29.2887 109.204 29.2847 109.648 29.274C110.091 29.2634 110.524 29.2594 110.948 29.2594C111.653 29.2594 112.261 29.35 112.771 29.5314C113.279 29.7127 113.669 29.9594 113.943 30.2727C114.215 30.5847 114.411 30.9194 114.532 31.278C114.653 31.6354 114.713 32.026 114.713 32.45C114.713 33.3674 114.396 34.1327 113.76 34.7487C113.116 35.3727 112.177 35.686 110.948 35.686C110.252 35.686 109.668 35.666 109.193 35.6247ZM111.024 30.0447C110.691 30.0447 110.081 30.0554 109.193 30.0754V34.8234C109.92 34.874 110.495 34.8994 110.917 34.8994C111.845 34.8994 112.564 34.678 113.072 34.234C113.581 33.79 113.836 33.19 113.836 32.434C113.836 31.6887 113.601 31.1034 113.133 30.6807C112.664 30.2567 111.961 30.0447 111.024 30.0447Z" fill="black"/>
<path d="M116.15 34.5818C116.15 33.0391 116.654 31.7484 117.662 30.7098C118.67 29.6724 119.936 29.1524 121.457 29.1524C122.97 29.1524 124.23 29.6671 125.238 30.6951C126.256 31.7138 126.765 33.0084 126.765 34.5818C126.765 36.1244 126.256 37.4191 125.238 38.4684C124.23 39.4964 122.97 40.0098 121.457 40.0098C119.945 40.0098 118.68 39.5018 117.662 38.4831C116.654 37.4644 116.15 36.1644 116.15 34.5818ZM117.026 34.5818C117.026 35.8924 117.45 36.9964 118.297 37.8938C119.154 38.7804 120.208 39.2244 121.457 39.2244C122.748 39.2244 123.806 38.7804 124.633 37.8938C125.47 36.9964 125.889 35.8924 125.889 34.5818C125.889 33.2404 125.46 32.1364 124.602 31.2698C123.756 30.3831 122.708 29.9391 121.457 29.9391C120.197 29.9391 119.144 30.3831 118.297 31.2698C117.45 32.1471 117.026 33.2511 117.026 34.5818Z" fill="black"/>
<path d="M134.251 39.9951H133.419V38.6191H133.344C131.801 38.6191 130.567 38.2511 129.639 37.5151C128.711 36.7698 128.248 35.7404 128.248 34.4298C128.248 33.1205 128.711 32.0911 129.639 31.3458C130.567 30.6098 131.821 30.2418 133.404 30.2418H133.419V29.1684H134.251V30.2418H134.281C135.873 30.2418 137.135 30.6151 138.061 31.3604C138.999 32.1071 139.468 33.1298 139.468 34.4298C139.468 35.7404 138.999 36.7698 138.061 37.5151C137.135 38.2511 135.899 38.6191 134.356 38.6191H134.251V39.9951ZM134.311 31.0125H134.251V37.8485H134.356C135.667 37.8485 136.7 37.5525 137.457 36.9631C138.213 36.3738 138.591 35.5298 138.591 34.4298C138.591 33.3511 138.211 32.5125 137.449 31.9125C136.688 31.3125 135.643 31.0125 134.311 31.0125ZM129.124 34.4298C129.124 35.5298 129.508 36.3711 130.273 36.9551C131.049 37.5511 132.079 37.8485 133.359 37.8485H133.419V31.0125H133.389C132.079 31.0125 131.04 31.3151 130.273 31.9205C129.508 32.5044 129.124 33.3418 129.124 34.4298Z" fill="black"/>
<path d="M149.677 30.65L142.554 39.874H141.814V29.2887H142.646V38.514L149.768 29.2887H150.509V39.874H149.677V30.65Z" fill="black"/>
<path d="M161.456 39.8737H160.624V30.075H156.178L155.996 32.071C155.764 34.743 155.407 36.7084 154.923 37.9684C154.731 38.5137 154.49 38.9364 154.198 39.239C153.935 39.5217 153.683 39.7057 153.442 39.791C153.199 39.8764 152.916 39.9044 152.594 39.8737L152.61 39.043C152.822 39.0524 153.003 39.0217 153.154 38.9524C153.304 38.8817 153.482 38.7204 153.683 38.4684C153.915 38.175 154.122 37.7777 154.303 37.2737C154.736 36.043 155.05 34.087 155.24 31.4057L155.392 29.2884H161.456V39.8737Z" fill="black"/>
<path d="M167.309 34.1736C166.704 34.1736 166.149 34.203 165.645 34.2643V39.0723C166.584 39.103 167.117 39.1176 167.249 39.1176C168.286 39.1176 169.081 38.899 169.63 38.4603C170.18 38.0216 170.454 37.3843 170.454 36.547C170.454 35.7816 170.185 35.1936 169.645 34.7856C169.106 34.3776 168.328 34.1736 167.309 34.1736ZM164.814 29.2883H165.645V33.463C166.452 33.4123 167.021 33.387 167.354 33.387C168.665 33.387 169.656 33.659 170.326 34.203C170.996 34.7483 171.332 35.5243 171.332 36.5323C171.332 37.611 170.966 38.443 170.234 39.027C169.504 39.6123 168.478 39.9043 167.157 39.9043C166.674 39.9043 166.256 39.899 165.902 39.8896C165.55 39.879 165.186 39.8736 164.814 39.8736V29.2883Z" fill="black"/>
<path d="M182.1 39.874H181.268V34.8687H174.66V39.874H173.828V29.2887H174.66V34.0834H181.268V29.2887H182.1V39.874Z" fill="black"/>
<path d="M184.944 39.874H184.098L188.71 29.198H189.39L194.002 39.874H193.11L191.567 36.2754H186.487L184.944 39.874ZM191.22 35.4887L189.027 30.3474L186.819 35.4887H191.22Z" fill="black"/>
<path d="M201.937 39.874H201.105V35.7314H198.746L195.737 39.874H194.785L197.93 35.61C197.274 35.398 196.73 35.03 196.297 34.506C195.853 33.9714 195.632 33.3474 195.632 32.6314C195.632 31.6434 195.969 30.8314 196.645 30.1967C197.33 29.5607 198.313 29.2434 199.593 29.2434C199.654 29.2434 200.057 29.254 200.804 29.274C201.176 29.2847 201.554 29.2887 201.937 29.2887V39.874ZM198.641 34.9447H201.105V30.0754C200.258 30.0447 199.704 30.03 199.442 30.03C198.514 30.03 197.794 30.2647 197.28 30.7327C196.765 31.202 196.509 31.8194 196.509 32.586C196.509 33.19 196.72 33.7154 197.144 34.158C197.577 34.5914 198.076 34.854 198.641 34.9447Z" fill="black"/>
<path d="M215.156 29.2887H216.17L211.164 34.294L216.38 39.874H215.307L210.18 34.3554L215.156 29.2887ZM209.682 39.874H208.85V29.2887H209.682V39.874Z" fill="black"/>
<path d="M225.879 39.8737H225.047V30.075H220.602L220.42 32.071C220.188 34.743 219.831 36.7084 219.347 37.9684C219.155 38.5137 218.914 38.9364 218.62 39.239C218.359 39.5217 218.107 39.7057 217.864 39.791C217.623 39.8764 217.34 39.9044 217.018 39.8737L217.032 39.043C217.244 39.0524 217.426 39.0217 217.578 38.9524C217.728 38.8817 217.904 38.7204 218.107 38.4684C218.339 38.175 218.546 37.7777 218.727 37.2737C219.16 36.043 219.472 34.087 219.664 31.4057L219.815 29.2884H225.879V39.8737Z" fill="black"/>
<path d="M237.102 30.65L229.98 39.874H229.238V29.2887H230.07V38.514L237.193 29.2887H237.934V39.874H237.102V30.65Z" fill="black"/>
<path d="M249.56 39.874H248.729V34.8687H242.12V39.874H241.289V29.2887H242.12V34.0834H248.729V29.2887H249.56V39.874Z" fill="black"/>
<path d="M260.78 30.65L253.657 39.874H252.916V29.2887H253.748V38.514L260.871 29.2887H261.611V39.874H260.78V30.65Z" fill="black"/>
<path d="M271.273 29.2887H272.287L267.281 34.294L272.497 39.874H271.424L266.297 34.3554L271.273 29.2887ZM265.799 39.874H264.967V29.2887H265.799V39.874Z" fill="black"/>
<path d="M273.831 39.874H272.984L277.596 29.198H278.278L282.89 39.874H281.998L280.455 36.2754H275.374L273.831 39.874ZM280.107 35.4887L277.914 30.3474L275.707 35.4887H280.107Z" fill="black"/>
</svg>
